<!-- Generated by IcoMoon.io -->
<svg version="1.1" xmlns="http://www.w3.org/2000/svg" width="55" height="64" viewBox="0 0 55 64">
<title>icon-bars</title>
<path d="M4.125 0.375h46.751c2.278 0 4.125 1.847 4.125 4.125v0c0 2.278-1.847 4.125-4.125 4.125h-46.751c-2.278 0-4.125-1.847-4.125-4.125v0 0c0-2.278 1.847-4.125 4.125-4.125v0zM4.125 27.876h46.751c2.278 0 4.125 1.847 4.125 4.125v0c0 2.278-1.847 4.125-4.125 4.125h-46.751c-2.278 0-4.125-1.847-4.125-4.125s1.847-4.125 4.125-4.125v0zM4.125 55.375h46.751c2.278 0 4.125 1.847 4.125 4.125v0c0 2.278-1.847 4.125-4.125 4.125h-46.751c-2.278 0-4.125-1.847-4.125-4.125s1.847-4.125 4.125-4.125v0z"></path>
</svg>
