<!-- Generated by IcoMoon.io -->
<svg version="1.1" xmlns="http://www.w3.org/2000/svg" width="32" height="32" viewBox="0 0 32 32">
<title>icon-tijian</title>
<path d="M29.333 32h-26.667c-2.205 0-2.667-0.414-2.667-2.45v-27.1c0-2.036 0.461-2.45 2.667-2.45h26.667c2.205 0 2.667 0.414 2.667 2.45v27.1c0 2.036-0.461 2.45-2.667 2.45zM7.857 5.6h16.286c0.386 0 0.757-0.126 1.030-0.351s0.427-0.53 0.427-0.85c0-0.662-0.652-1.199-1.457-1.199h-16.286c-0.805 0-1.457 0.537-1.457 1.201 0 0.318 0.154 0.623 0.427 0.848s0.644 0.351 1.030 0.351zM24.292 21.384c0-0.162 0-0.244 0-0.246 0-0.742-0.601-1.343-1.343-1.343s-1.343 0.601-1.343 1.353v0.246c0 1.347-1.092 2.439-2.439 2.439s-2.439-1.092-2.439-2.439v-1.084c3.501-0.648 6.042-3.702 6.042-7.263v-2.108c-0.002-0.74-0.603-1.338-1.343-1.338h-2.596c-0.742 0-1.343 0.601-1.343 1.343s0.601 1.343 1.343 1.343h1.253v0.761c0 2.595-2.104 4.7-4.7 4.7s-4.7-2.104-4.7-4.7v-0.761h1.253c0.742 0 1.343-0.601 1.343-1.343s-0.601-1.343-1.343-1.343h-2.596c-0.74 0-1.34 0.598-1.343 1.338v2.108c0 3.561 2.541 6.615 6.042 7.263v1.075c0 2.83 2.294 5.125 5.125 5.125s5.125-2.294 5.125-5.125z"></path>
</svg>
