<!-- Generated by IcoMoon.io -->
<svg version="1.1" xmlns="http://www.w3.org/2000/svg" width="64" height="64" viewBox="0 0 64 64">
<title>icon-edit</title>
<path d="M50.173 64h-36.346c-7.901 0-13.827-5.963-13.827-13.913v-36.174c0-7.95 5.926-13.913 13.827-13.913h17.383c2.37 0 3.951 1.59 3.951 3.975s-1.58 3.975-3.951 3.975h-17.383c-3.16 0-5.926 2.783-5.926 5.963v36.174c0 3.18 2.765 5.963 5.926 5.963h36.346c3.16 0 5.926-2.783 5.926-5.963v-19.876c0-2.385 1.58-3.975 3.951-3.975s3.951 1.59 3.951 3.975v19.876c0 7.95-5.926 13.913-13.827 13.913v0zM31.711 36c-1.113 0-1.856-0.371-2.598-1.113-1.485-1.485-1.485-3.711 0-5.196l28.577-28.577c1.485-1.485 3.711-1.485 5.196 0s1.485 3.711 0 5.196l-28.577 28.577c-0.742 0.742-1.485 1.113-2.598 1.113z"></path>
</svg>
