<!-- Generated by IcoMoon.io -->
<svg version="1.1" xmlns="http://www.w3.org/2000/svg" width="32" height="32" viewBox="0 0 32 32">
<title>icon-huli</title>
<path d="M29.333 32h-26.667c-2.205 0-2.667-0.414-2.667-2.45v-27.1c0-2.036 0.461-2.45 2.667-2.45h26.667c2.205 0 2.667 0.414 2.667 2.45v27.1c0 2.036-0.461 2.45-2.667 2.45zM16 4.8c-6.185 0-11.2 5.015-11.2 11.2s5.015 11.2 11.2 11.2c6.185 0 11.2-5.015 11.2-11.2s-5.015-11.2-11.2-11.2zM16.069 25.098c-4.988 0-9.029-4.040-9.029-9.029s4.040-9.029 9.029-9.029c4.988 0 9.029 4.040 9.029 9.029s-4.040 9.029-9.029 9.029zM14.7 12.070v4.203c0 0-0.045 0.489 0.406 0.948 0.45 0.464 4.149 4.163 4.149 4.163s0.708 0.347 1.302-0.239c0.594-0.586-0.084-1.373-0.084-1.373l-3.441-3.587c0 0-0.252-0.161-0.252-0.826s-0.010-3.294-0.010-3.294c0 0-0.282-0.865-0.995-0.865-0.708 0-1.064 0.591-1.074 0.87z"></path>
</svg>
