<!-- Generated by IcoMoon.io -->
<svg version="1.1" xmlns="http://www.w3.org/2000/svg" width="64" height="64" viewBox="0 0 64 64">
<title>icon-rectangle</title>
<path d="M50 58c-1.2 0-2-0.8-2-2s0.8-2 2-2h10v-5.999c0-1.2 0.8-2 2-2s2 0.8 2 2v8c0 1.2-0.8 2-2 2h-12zM60 28c0-1.2 0.8-2 2-2s2 0.8 2 2v8c0 1.2-0.8 2-2 2s-2-0.8-2-2v-8zM60 10h-10c-1.2 0-2-0.8-2-2s0.8-2 2-2h12c1.2 0 2 0.8 2 2v8c0 1.2-0.8 2-2 2s-2-0.8-2-2v-6zM24 56c0-1.2 0.8-2 2-2h12c1.2 0 2 0.8 2 2s-0.8 2-2 2h-12c-1.2 0-2-0.8-2-2zM24 8c0-1.2 0.8-2 2-2h12c1.2 0 2 0.8 2 2s-0.8 2-2 2h-12c-1.2 0-2-0.8-2-2zM0.001 48c0-1.2 0.8-2 2-2s2 0.8 2 2v5.999h10c1.2 0 2 0.8 2 2s-0.8 2-2 2h-12c-1.2 0-2-0.8-2-2v-8zM4 16.001c0 1.2-0.8 2-2 2s-2-0.8-2-2v-8c0-1.2 0.8-2 2-2h12c1.2 0 2 0.8 2 2s-0.8 2-2 2h-10v6zM4 36c0 1.2-0.8 2-2 2s-2-0.8-2-2v-8c0-1.2 0.8-2 2-2s2 0.8 2 2v8z"></path>
</svg>
