<!-- Generated by IcoMoon.io -->
<svg version="1.1" xmlns="http://www.w3.org/2000/svg" width="64" height="64" viewBox="0 0 64 64">
<title>icon-select-chuangwei</title>
<path d="M49.215 64c-0.692 0-1.5-0.24-2.192-0.6l-15.001-7.805-15.116 7.805c-1.5 0.841-3.462 0.72-4.846-0.36s-2.192-3.002-1.846-4.803l3.116-16.81-11.885-11.527c-1.269-1.321-1.731-3.362-1.269-5.043 0.577-1.801 1.962-3.122 3.808-3.362l16.501-3.122 7.385-15.61c0.808-1.681 2.423-2.762 4.154-2.762s3.462 1.081 4.154 2.762l7.385 15.61 16.501 3.002c1.731 0.24 3.231 1.561 3.692 3.362 0.577 1.801 0.115 3.722-1.154 5.043l-11.885 11.647 3 16.811c0.346 1.921-0.462 3.722-1.846 4.803-0.692 0.6-1.615 0.961-2.654 0.961z"></path>
</svg>
