<!-- Generated by IcoMoon.io -->
<svg version="1.1" xmlns="http://www.w3.org/2000/svg" width="910" height="1024" viewBox="0 0 910 1024">
<title>icon-layout</title>
<path d="M455.123 1004.383c-251.375 0-455.123-203.717-455.123-455.126 0-190.271 116.809-353.199 282.49-421.169v0.112c4.897-1.75 10.179-2.689 15.718-2.689 25.929 0 47.098 21.064 47.098 47.058 0 20.462-13.101 37.963-31.444 44.417v0.032c-129.107 54.925-219.699 183.014-219.699 332.207 0 199.374 161.587 360.962 360.96 360.962 199.381 0 360.968-161.62 360.968-360.962 0-149.193-90.527-277.258-219.739-332.207-18.303-6.422-31.372-23.922-31.372-44.409 0-26.001 21.056-47.066 47.066-47.066 5.475 0 10.717 0.939 15.686 2.689v-0.112c165.818 67.978 282.49 230.906 282.49 421.169 0.040 251.377-203.748 455.094-455.099 455.094zM455.123 517.886c-25.961 0-47.058-21.072-47.058-47.106v-423.714c-0.032-25.937 21.096-47.066 47.058-47.066 26.001 0 47.066 21.105 47.066 47.066v423.69c0.008 26.026-21.056 47.13-47.066 47.13z"></path>
</svg>
