<!-- Generated by IcoMoon.io -->
<svg version="1.1" xmlns="http://www.w3.org/2000/svg" width="64" height="64" viewBox="0 0 64 64">
<title>icon-dashboard</title>
<path d="M13.714 38.857q0-1.892-1.34-3.232t-3.232-1.34-3.232 1.34-1.34 3.232 1.34 3.232 3.232 1.34 3.232-1.34 1.34-3.232zM20.572 22.857q0-1.892-1.34-3.232t-3.232-1.34-3.232 1.34-1.34 3.232 1.34 3.232 3.232 1.34 3.232-1.34 1.34-3.232zM35.858 40.037l3.608-13.642q0.214-0.928-0.268-1.732t-1.376-1.054-1.714 0.232-1.072 1.41l-3.608 13.642q-2.142 0.178-3.822 1.554t-2.25 3.518q-0.714 2.75 0.714 5.214t4.178 3.178 5.214-0.714 3.178-4.178q0.572-2.142-0.214-4.178t-2.572-3.25zM59.428 38.857q0-1.892-1.34-3.232t-3.232-1.34-3.232 1.34-1.34 3.232 1.34 3.232 3.232 1.34 3.232-1.34 1.34-3.232zM36.572 16.001q0-1.892-1.34-3.232t-3.232-1.34-3.232 1.34-1.34 3.232 1.34 3.232 3.232 1.34 3.232-1.34 1.34-3.232zM52.572 22.857q0-1.892-1.34-3.232t-3.232-1.34-3.232 1.34-1.34 3.232 1.34 3.232 3.232 1.34 3.232-1.34 1.34-3.232zM64 38.857q0 9.322-5.036 17.25-0.678 1.036-1.928 1.036h-50.072q-1.25 0-1.928-1.036-5.036-7.892-5.036-17.25 0-6.5 2.536-12.428t6.822-10.214 10.214-6.822 12.428-2.536 12.428 2.536 10.214 6.822 6.822 10.214 2.536 12.428z"></path>
</svg>
