<!-- Generated by IcoMoon.io -->
<svg version="1.1" xmlns="http://www.w3.org/2000/svg" width="64" height="64" viewBox="0 0 64 64">
<title>icon-eye</title>
<path d="M42.005 32c0-1.045-0.149-2.027-0.448-2.965-0.789 1.75-2.517 2.965-4.566 2.965l-0.533-0.043-0.427 0.043c-2.219 0-4.032-1.834-4.032-4.075l0.021-0.426-0.021-0.534c0-2.027 1.216-3.776 2.944-4.565-0.939-0.299-1.92-0.448-2.944-0.448-5.525 0-10.005 4.501-10.005 10.048s4.48 10.027 10.005 10.027 10.005-4.48 10.005-10.027v0zM64 32c0 0-10.987-21.333-32.107-21.333-21.035 0-31.893 21.333-31.893 21.333s11.776 21.333 32.043 21.333c20.949 0 31.957-21.333 31.957-21.333v0zM17.152 32c0-8.235 6.635-14.912 14.848-14.912s14.848 6.677 14.848 14.912-6.634 14.912-14.848 14.912c-8.213 0-14.848-6.677-14.848-14.912v0z"></path>
</svg>
