<!-- Generated by IcoMoon.io -->
<svg version="1.1" xmlns="http://www.w3.org/2000/svg" width="64" height="64" viewBox="0 0 64 64">
<title>icon-xueya</title>
<path d="M41.275 6.837c-1.174-3.936-4.931-6.837-9.393-6.837s-8.219 2.9-9.393 6.837h-10.332c-3.522 0-6.34 2.486-6.34 5.387v46.39c0 2.9 2.818 5.387 6.34 5.387h39.684c3.522 0 6.34-2.486 6.34-5.387v-46.39c-0.235-2.9-3.053-5.387-6.575-5.387h-10.332zM49.634 58.182h-35.269c-1.47 0-2.729-0.938-2.729-2.252v-41.478c0-1.126 1.26-2.252 2.729-2.252h10.077c1.050 0 1.889-0.751 2.099-1.689 0.42-2.628 2.729-4.692 5.458-4.692s5.038 1.877 5.458 4.692c0.21 0.938 1.050 1.689 2.099 1.689h10.077c1.47 0 2.729 0.938 2.729 2.252v41.478c0 1.126-1.26 2.252-2.729 2.252z"></path>
<path d="M32 17.455v0c1.607 0 2.909 1.302 2.909 2.909v37.818h-5.818v-37.818c0-1.607 1.302-2.909 2.909-2.909z"></path>
<path d="M32 23.273h5.818c1.607 0 2.909 1.302 2.909 2.909s-1.302 2.909-2.909 2.909h-5.818c-1.607 0-2.909-1.302-2.909-2.909s1.302-2.909 2.909-2.909z"></path>
<path d="M32 29.091h5.818c1.607 0 2.909 1.302 2.909 2.909s-1.302 2.909-2.909 2.909h-5.818c-1.607 0-2.909-1.302-2.909-2.909s1.302-2.909 2.909-2.909z"></path>
<path d="M32 40.727h5.818c1.607 0 2.909 1.302 2.909 2.909s-1.302 2.909-2.909 2.909h-5.818c-1.607 0-2.909-1.302-2.909-2.909s1.302-2.909 2.909-2.909z"></path>
<path d="M32 34.909h5.818c1.607 0 2.909 1.302 2.909 2.909s-1.302 2.909-2.909 2.909h-5.818c-1.607 0-2.909-1.302-2.909-2.909s1.302-2.909 2.909-2.909z"></path>
<path d="M32 46.545h5.818c1.607 0 2.909 1.302 2.909 2.909s-1.302 2.909-2.909 2.909h-5.818c-1.607 0-2.909-1.302-2.909-2.909s1.302-2.909 2.909-2.909z"></path>
</svg>
