<!-- Generated by IcoMoon.io -->
<svg version="1.1" xmlns="http://www.w3.org/2000/svg" width="64" height="64" viewBox="0 0 64 64">
<title>icon-exclamation-circle</title>
<path d="M32 0c-17.675 0-32 14.325-32 32s14.325 32 32 32 32-14.325 32-32-14.325-32-32-32zM29.5 14.438c0-1.381 1.119-2.5 2.5-2.5s2.5 1.119 2.5 2.5v23.063c0 1.381-1.119 2.5-2.5 2.5s-2.5-1.119-2.5-2.5v-23.063zM32 49.625c-1.556 0-2.813-1.256-2.813-2.813s1.256-2.813 2.813-2.813 2.813 1.256 2.813 2.813c0 1.55-1.256 2.813-2.813 2.813z"></path>
</svg>
