<!-- Generated by IcoMoon.io -->
<svg version="1.1" xmlns="http://www.w3.org/2000/svg" width="54" height="64" viewBox="0 0 54 64">
<title>icon-user</title>
<path d="M15.454 27.858c1.5 1.524 3.293 2.728 5.271 3.541 4.019 1.658 8.53 1.658 12.549 0 1.978-0.813 3.77-2.018 5.271-3.541 3.135-3.024 4.907-7.193 4.907-11.549s-1.771-8.525-4.907-11.549c-1.502-1.522-3.294-2.725-5.271-3.54-4.025-1.626-8.524-1.626-12.549 0-1.977 0.815-3.769 2.019-5.271 3.54-1.522 1.533-2.755 3.328-3.639 5.3-2.586 6.114-1.14 13.19 3.639 17.799v0 0zM15.454 27.858l24.722 8.52h-26.353c-7.576 0.072-13.68 6.234-13.68 13.811s6.104 13.739 13.68 13.811h26.353c7.576-0.072 13.68-6.234 13.68-13.811s-6.104-13.739-13.68-13.811v0l-24.722-8.52z"></path>
</svg>
