<!-- Generated by IcoMoon.io -->
<svg version="1.1" xmlns="http://www.w3.org/2000/svg" width="64" height="64" viewBox="0 0 64 64">
<title>icon-document</title>
<path d="M0.958 63.999h13.239v-59.802c0-1.826-0.913-3.652-2.283-3.652h-8.674c-1.37 0-2.283 1.826-2.283 3.652v59.802zM8.262 58.064h-1.826v-8.674h1.826v8.674zM2.784 13.326c0-1.37 0.913-2.739 1.826-2.739h5.022c0.913 0 1.826 1.37 1.826 2.739v4.565c0 1.37-0.913 2.739-1.826 2.739h-5.022c-0.913 0-1.826-0.913-1.826-2.739v-4.565zM18.762 63.999h13.239v-59.802c0-1.826-0.913-3.652-2.283-3.652h-8.674c-1.37 0-2.283 1.826-2.283 3.652v59.802zM23.784 58.064h-1.37v-8.674h1.37v8.674zM28.349 58.064h-1.826v-8.674h1.826v8.674zM21.045 13.326c0-1.37 0.913-2.739 1.826-2.739h5.022c0.913 0 1.826 1.37 1.826 2.739v4.565c0 1.37-0.913 2.739-1.826 2.739h-5.022c-0.913 0-1.826-1.37-1.826-2.739v-4.565zM50.261 63.999l12.782-3.652-17.347-57.519c-0.456-1.826-1.826-3.196-3.196-2.739l-8.217 2.739c-0.913 0-1.826 1.826-0.913 4.109l16.891 57.063zM53.457 56.695l-1.37 0.456-2.283-8.217 1.37-0.456 2.283 8.217zM58.022 55.782l-1.826 0.456-2.283-8.217 1.826-0.456 2.283 8.217zM37.936 14.697c-0.456-1.37 0-2.739 0.913-3.196l5.022-1.37c0.913-0.457 2.283 0.457 2.739 2.283l1.37 4.565c0.456 1.37 0 2.739-0.913 3.196l-5.022 1.37c-0.913 0-2.283-0.913-2.739-2.283l-1.37-4.565z"></path>
</svg>
