<!-- Generated by IcoMoon.io -->
<svg version="1.1" xmlns="http://www.w3.org/2000/svg" width="61" height="64" viewBox="0 0 61 64">
<title>icon-task</title>
<path d="M6.791 0.23h47.416c0.052-0.001 0.111-0.002 0.172-0.002 3.573 0 6.486 2.829 6.621 6.369v50.794c-0.135 3.552-3.048 6.382-6.621 6.382-0.061 0-0.121-0.001-0.181-0.002h-47.408c-0.052 0.001-0.111 0.002-0.172 0.002-3.573 0-6.485-2.83-6.619-6.37v-50.871c0.175-3.519 3.070-6.305 6.616-6.305 0.062 0 0.123 0.001 0.185 0.003h-0.009zM13.583 14.514v6.354h34.226v-6.354h-34.226zM13.583 27.121v6.38h34.226v-6.38h-34.226zM13.583 39.93v6.38h25.602v-6.38h-25.602z"></path>
</svg>
