<!-- Generated by IcoMoon.io -->
<svg version="1.1" xmlns="http://www.w3.org/2000/svg" width="32" height="32" viewBox="0 0 32 32">
<title>icon-monitor</title>
<path d="M29.333 32h-26.667c-2.205 0-2.667-0.414-2.667-2.45v-27.1c0-2.036 0.461-2.45 2.667-2.45h26.667c2.205 0 2.667 0.414 2.667 2.45v27.1c0 2.036-0.461 2.45-2.667 2.45zM15.514 22.4c0.441 0.002 0.855-0.211 1.113-0.571l3.397-4.783 0.723 1.089c0.253 0.382 0.679 0.611 1.135 0.611h5.455c0.51 0.038 0.997-0.215 1.264-0.655s0.266-0.993 0-1.433c-0.266-0.44-0.754-0.693-1.264-0.655h-4.728l-1.414-2.132c-0.249-0.376-0.665-0.604-1.113-0.611-0.45-0.016-0.876 0.2-1.132 0.574l-3.281 4.619-4.413-8.137c-0.26-0.481-0.778-0.76-1.318-0.711s-1.001 0.416-1.173 0.935l-1.508 4.548h-2.654c-0.51-0.038-0.997 0.215-1.264 0.655s-0.266 0.993 0 1.433c0.266 0.44 0.754 0.693 1.264 0.655h3.637c0.586 0 1.107-0.377 1.294-0.938l0.827-2.497 3.955 7.291c0.226 0.415 0.647 0.683 1.115 0.712h0.083z"></path>
</svg>
