<!-- Generated by IcoMoon.io -->
<svg version="1.1" xmlns="http://www.w3.org/2000/svg" width="69" height="64" viewBox="0 0 69 64">
<title>icon-notification</title>
<path d="M64.625 55.465l-19.374-12.801h-17.257v17.067c-0.004 2.358-1.917 4.269-4.276 4.269-0.003 0-0.005 0-0.008 0h-6.474c-0.007 0-0.016 0-0.025 0-2.361 0-4.275-1.909-4.283-4.268v-17.068c0.005-0.146 0.022-0.286 0.052-0.421l-0.003 0.015c-7.459-1.411-12.973-6.563-12.973-14.524 0-9.423 7.73-14.933 17.232-14.933h28.014l19.374-12.801c0.007 0 0.016 0 0.025 0 2.361 0 4.275 1.909 4.283 4.268v46.929c-0.008 2.359-1.923 4.269-4.283 4.269-0.009 0-0.017 0-0.026 0h0.001z"></path>
</svg>
