<!-- Generated by IcoMoon.io -->
<svg version="1.1" xmlns="http://www.w3.org/2000/svg" width="62" height="64" viewBox="0 0 62 64">
<title>icon-settlement</title>
<path d="M30.848 46.403c-17.087 0-30.839-6.835-30.839-14.648 0-0.025 0-0.054 0-0.084 0-2.014 0.716-3.862 1.908-5.301l-0.011 0.014c4.752 5.371 15.648 9.277 28.943 9.277s24.192-3.906 28.943-9.277c0.996 1.528 1.673 3.352 1.891 5.315l0.005 0.056c0 8.302-13.752 14.648-30.839 14.648zM30.848 29.314c-17.042 0-30.839-6.556-30.839-14.648s13.798-14.648 30.839-14.648 30.839 6.559 30.839 14.648-13.798 14.648-30.839 14.648zM30.848 53.238c13.295 0 24.192-3.904 28.943-9.275 0.997 1.528 1.673 3.352 1.891 5.315l0.005 0.056c0 8.299-13.752 14.648-30.839 14.648s-30.839-6.835-30.839-14.648c-0.006-0.113-0.009-0.245-0.009-0.377 0-1.921 0.723-3.674 1.912-5l-0.006 0.007c4.752 5.371 15.648 9.282 28.943 9.282z"></path>
</svg>
