<!-- Generated by IcoMoon.io -->
<svg version="1.1" xmlns="http://www.w3.org/2000/svg" width="64" height="64" viewBox="0 0 64 64">
<title>icon-tiwen</title>
<path d="M35.525 21.333h-1.718c-0.994 0-1.808-0.951-1.808-2.112s0.814-2.112 1.808-2.112h1.718c0.994 0 1.808 0.951 1.808 2.112s-0.814 2.112-1.808 2.112zM35.525 14.891h-1.718c-0.994 0-1.808-0.95-1.808-2.112s0.814-2.112 1.808-2.112h1.718c0.994 0 1.808 0.95 1.808 2.112s-0.814 2.112-1.808 2.112z"></path>
<path d="M31.939 64c-8.828 0-15.939-6.892-15.939-15.508 0-5.169 2.575-9.846 6.989-12.8v-26.954c0-4.8 4.046-8.738 9.073-8.738s9.073 3.938 9.073 8.738v27.077c4.291 2.831 6.866 7.631 6.866 12.677-0.123 8.615-7.234 15.508-16.061 15.508zM32.061 4.923c-2.329 0-4.169 1.723-4.169 3.815v28.308c0 0.862-0.49 1.6-1.103 2.092l-0.736 0.492c-3.188 1.969-5.027 5.292-5.027 8.862 0 5.785 4.904 10.585 11.035 10.585s11.035-4.677 11.035-10.585c0-3.569-1.839-6.769-4.904-8.738l-0.736-0.492c-0.736-0.492-1.103-1.231-1.103-2.092v-28.431c-0.245-2.092-2.084-3.815-4.291-3.815z"></path>
<path d="M34.526 53.333h-5.053c-1.544 0-2.807-1.263-2.807-2.807v-5.053c0-1.544 1.263-2.807 2.807-2.807s2.807 1.263 2.807 2.807v2.246h2.246c1.544 0 2.807 1.263 2.807 2.807s-1.263 2.807-2.807 2.807z"></path>
</svg>
