<!-- Generated by IcoMoon.io -->
<svg version="1.1" xmlns="http://www.w3.org/2000/svg" width="57" height="64" viewBox="0 0 57 64">
<title>icon-admin</title>
<path d="M32.039 41.547v15.174c0 1.954-1.584 3.539-3.539 3.539s-3.539-1.584-3.539-3.539v-15.174c-2.128-1.252-3.534-3.531-3.534-6.138 0-0.004 0-0.007 0-0.011v0.001h14.142c0 0.003 0 0.006 0 0.009 0 2.606-1.405 4.886-3.499 6.121l-0.033 0.018zM55.906 63.803c0.565-2.122 0.89-4.558 0.89-7.069 0-11.389-6.678-21.218-16.33-25.786l-0.173-0.074c3.626-3.253 5.896-7.953 5.896-13.184 0-9.77-7.919-17.689-17.689-17.689s-17.689 7.919-17.689 17.689c0 5.231 2.271 9.932 5.879 13.169l0.017 0.015c-9.827 4.642-16.503 14.471-16.503 25.859 0 2.512 0.325 4.947 0.934 7.267l-0.044-0.199h54.813z"></path>
</svg>
