<!-- Generated by IcoMoon.io -->
<svg version="1.1" xmlns="http://www.w3.org/2000/svg" width="32" height="32" viewBox="0 0 32 32">
<title>icon-xinxi</title>
<path d="M30.197 0c2.165 0 1.779 2.772 1.772 4.17v25.306c0 1.393-0.809 2.524-1.807 2.524h-28.354c-0.999 0-1.807-1.13-1.807-2.524v-25.311c0-2.93 0.039-4.165 1.768-4.165h28.429zM15.653 6.728c-2.399 0.117-4.356 2.071-4.516 4.456-0.198 2.788 2.037 5.136 4.794 5.136 2.677 0 4.794-2.151 4.794-4.775 0.042-2.751-2.277-4.976-5.071-4.817zM15.998 17.28c-2.931 0-8.798 1.601-8.798 4.798v2.401c0 0.438 0.328 0.8 0.734 0.8h16.132c0.401 0 0.734-0.358 0.734-0.8v-2.439c-0.004-3.16-5.867-4.76-8.802-4.76z"></path>
</svg>
