<!-- Generated by IcoMoon.io -->
<svg version="1.1" xmlns="http://www.w3.org/2000/svg" width="68" height="64" viewBox="0 0 68 64">
<title>icon-upload</title>
<path d="M36.551 1.096l18.82 18.82c0.725 0.725 1.087 1.617 1.087 2.676 0 1.078-0.358 1.975-1.073 2.69s-1.612 1.073-2.69 1.073c-1.059 0-1.952-0.362-2.676-1.087l-12.378-12.409v32.316c0 1.039-0.368 1.926-1.104 2.662s-1.623 1.104-2.662 1.104c-1.039 0-1.926-0.368-2.662-1.104s-1.104-1.623-1.104-2.662v-32.316l-12.378 12.409c-0.764 0.725-1.656 1.087-2.676 1.087-1.039 0-1.926-0.368-2.662-1.104s-1.104-1.623-1.104-2.662c0-1.020 0.362-1.912 1.087-2.676l18.82-18.82c0.725-0.725 1.617-1.087 2.676-1.087 1.062 0.003 1.954 0.365 2.679 1.090zM66.647 42.513c0.736 0.736 1.104 1.623 1.104 2.662v7.527c0 3.137-1.088 5.794-3.263 7.969-2.215 2.215-4.862 3.322-7.941 3.322h-45.255c-3.077 0-5.743-1.098-7.997-3.294-2.196-2.255-3.294-4.92-3.294-7.997v-7.527c0-1.039 0.368-1.926 1.104-2.662s1.623-1.104 2.662-1.104c1.039 0 1.926 0.368 2.662 1.104s1.104 1.623 1.104 2.662v7.527c0 1.039 0.368 1.926 1.104 2.662s1.623 1.104 2.662 1.104h45.255c1.020 0 1.888-0.368 2.603-1.104s1.073-1.623 1.073-2.662v-7.527c0-1.039 0.368-1.926 1.104-2.662s1.623-1.104 2.662-1.104c1.030 0 1.918 0.368 2.653 1.104z"></path>
</svg>
