<!-- Generated by IcoMoon.io -->
<svg version="1.1" xmlns="http://www.w3.org/2000/svg" width="40" height="32" viewBox="0 0 40 32">
<title>icon-xinlv</title>
<path d="M37.333 9.456c0-5.223-4.584-9.456-10.236-9.456-2.76 0-5.254 1.011-7.094 2.644-1.839-1.633-4.34-2.644-7.094-2.644-5.655 0-10.243 4.234-10.243 9.456 0 0.601 0.108 1.328 0.080 1.082 1.099 9.335 15.743 21.461 17.256 21.461 1.525 0 16.157-12.126 17.263-21.461-0.025 0.246 0.068-0.481 0.068-1.082zM20.057 29.667c-2.73-1.517-14.034-11.44-14.891-18.693-0.266-0.171-0.057-0.385-0.057-0.849 0-4.106 3.151-7.708 7.599-7.708 2.089 0 4.694 0.99 6.208 2.337l1.141 0.913 1.193-0.913c1.497-1.342 4.372-2.341 6.458-2.337 4.448 0 7.375 3.591 7.375 7.697-0 0.287-0.019 0.574-0.057 0.859-0.856 7.243-12.239 17.177-14.969 18.693z"></path>
<path d="M1.333 16.084h7.676c0.199 0 0.381-0.111 0.473-0.287l2.634-5.067c0.136-0.261 0.458-0.363 0.719-0.227 0.107 0.055 0.191 0.145 0.241 0.255l4.802 10.71c0.12 0.269 0.436 0.389 0.705 0.268 0.132-0.059 0.234-0.169 0.283-0.304l4.414-12.138c0.101-0.277 0.407-0.42 0.683-0.319 0.141 0.051 0.254 0.159 0.311 0.298l2.673 6.482c0.082 0.2 0.277 0.33 0.493 0.33h10.143"></path>
</svg>
