<!-- Generated by IcoMoon.io -->
<svg version="1.1" xmlns="http://www.w3.org/2000/svg" width="32" height="32" viewBox="0 0 32 32">
<title>icon-jiankang</title>
<path d="M16.8 16.8h3.2c0.442 0 0.8 0.358 0.8 0.8s-0.358 0.8-0.8 0.8h-3.2v3.2c0 0.442-0.358 0.8-0.8 0.8s-0.8-0.358-0.8-0.8v-3.2h-3.2c-0.442 0-0.8-0.358-0.8-0.8s0.358-0.8 0.8-0.8h3.2v-3.2c0-0.442 0.358-0.8 0.8-0.8s0.8 0.358 0.8 0.8v3.2zM29.333 32h-26.667c-2.205 0-2.667-0.414-2.667-2.45v-27.1c0-2.036 0.461-2.45 2.667-2.45h26.667c2.205 0 2.667 0.414 2.667 2.45v27.1c0 2.036-0.461 2.45-2.667 2.45zM26.938 13.868l-9.635-8.161c-0.656-0.554-1.616-0.568-2.285-0.027l-9.619 7.773c-0.321 0.257-0.369 0.727-0.112 1.045 0.257 0.321 0.727 0.368 1.045 0.112l0.757-0.612v9.811c0 0.987 0.805 1.792 1.792 1.792h3.178c0.987 0 6.89 0 7.877 0h3.077c0.987 0 1.792-0.805 1.792-1.792v-9.794l1.17 0.991c0.139 0.118 0.311 0.176 0.48 0.176 0.21 0 0.419-0.088 0.568-0.264 0.267-0.311 0.227-0.781-0.085-1.048z"></path>
</svg>
