<!-- Generated by IcoMoon.io -->
<svg version="1.1" xmlns="http://www.w3.org/2000/svg" width="28" height="32" viewBox="0 0 28 32">
<title>icon-smzhaohu</title>
<path d="M13.806 0c-4.472 0-8.605 1.941-11.97 4.796-1.723 1.463-2.306 3.876-1.437 5.963l2.054 4.929c1.963-4.317 6.308-7.318 11.353-7.318 5.169 0 9.602 3.147 11.492 7.63l2.188-5.254c0.866-2.079 0.294-4.478-1.415-5.944-3.413-2.93-7.658-4.802-12.265-4.802zM16.28 5.606h-1.441v1.513h-2.012v-1.513h-1.513v-2.017h1.513v-1.514h2.012v1.514h1.441v2.017h0zM19.245 11.429c3.253 1.917 5.441 5.466 5.441 9.529 0 6.099-4.921 11.042-10.994 11.042-5.749 0-10.466-4.435-10.949-10.084 1.017-3.995 4.092-5.432 5.993-5.946 0.319-0.086 0.658 0.033 0.851 0.301s0.204 0.628 0.025 0.905c-0.244 0.378-0.52 0.737-0.793 1.060-0.17 0.201-0.184 0.49-0.038 0.708 0.148 0.219 0.42 0.312 0.669 0.229 6.184-2.060 9.792-7.74 9.792-7.74s0.002-0.003 0.003-0.004z"></path>
</svg>
