<!-- Generated by IcoMoon.io -->
<svg version="1.1" xmlns="http://www.w3.org/2000/svg" width="29" height="32" viewBox="0 0 29 32">
<title>icon-smyuding</title>
<path d="M21.818 1.892c0-0.867-0.581-1.445-1.454-1.445h-11.637c-0.873 0-1.454 0.578-1.454 1.445h-5.818c-0.873 0-1.454 0.578-1.454 1.445v26.994c0 0.867 0.581 1.445 1.454 1.445h26.182c0.873 0 1.454-0.578 1.454-1.445 0-8.557 0-15.534 0-20.932 0-1.347 0-3.368 0-6.062 0-0.867-0.581-1.445-1.454-1.445h-5.819zM10.181 3.338h8.727v2.891h-8.727v-2.891zM12.592 21.663l9.379-8.908 2.085 1.98-11.464 10.887-6.998-6.646 2.085-1.98 4.913 4.666z"></path>
</svg>
