<!-- Generated by IcoMoon.io -->
<svg version="1.1" xmlns="http://www.w3.org/2000/svg" width="57" height="64" viewBox="0 0 57 64">
<title>icon-taskset</title>
<path d="M55.095 8.447c-1.112-1.194-2.693-1.938-4.448-1.938-0.002 0-0.003 0-0.005 0h-13.206c-0.685-1.892-1.869-3.466-3.395-4.611l-0.026-0.018c-1.517-1.125-3.427-1.802-5.493-1.802s-3.976 0.676-5.518 1.819l0.025-0.018c-1.551 1.162-2.735 2.735-3.399 4.56l-0.022 0.069h-13.224c-0.001 0-0.002 0-0.004 0-1.756 0-3.337 0.744-4.446 1.934l-0.003 0.004c-1.189 1.131-1.929 2.725-1.931 4.491v44.552c0.004 1.767 0.743 3.36 1.928 4.49l0.002 0.002c1.112 1.194 2.694 1.938 4.449 1.938 0.001 0 0.003 0 0.004 0h44.233c3.491-0.123 6.286-2.935 6.384-6.421v-44.561c-0.004-1.767-0.743-3.36-1.929-4.489l-0.002-0.002zM26.296 7.398c0.58-0.551 1.366-0.89 2.229-0.89s1.65 0.339 2.231 0.891l-0.001-0.001c0.552 0.558 0.893 1.325 0.893 2.172 0 0.030 0 0.060-0.001 0.091v-0.004c0 0.015 0 0.033 0 0.051 0 0.872-0.339 1.665-0.894 2.254l0.002-0.002c-0.555 0.604-1.349 0.981-2.229 0.981s-1.675-0.377-2.227-0.979l-0.002-0.002c-0.551-0.584-0.89-1.373-0.89-2.241 0-0.022 0-0.043 0.001-0.065v0.003c-0.001-0.027-0.001-0.058-0.001-0.089 0-0.845 0.34-1.611 0.891-2.169v0zM34.909 51.221h-22.267v-6.43h22.267v6.43zM44.408 38.361h-31.766v-6.293h31.766v6.293zM44.408 25.639h-31.766v-6.43h31.766v6.43z"></path>
</svg>
