<!-- Generated by IcoMoon.io -->
<svg version="1.1" xmlns="http://www.w3.org/2000/svg" width="64" height="64" viewBox="0 0 64 64">
<title>icon-search</title>
<path d="M63.18 58.88l-11.918-11.681c9.988-11.26 9.339-28.377-1.474-38.85-11.485-11.133-29.747-11.133-41.231 0-5.469 5.298-8.556 12.583-8.556 20.193s3.087 14.895 8.556 20.193c10.432 10.026 26.585 11.068 38.22 2.464l12.046 11.809c0.539 0.57 1.268 0.923 2.050 0.992 0.809-0.003 1.588-0.312 2.178-0.864 0.583-0.547 0.924-1.303 0.948-2.102s-0.271-1.574-0.82-2.155v0zM6.155 28.542c0.211-12.521 10.498-22.526 23.035-22.401 12.524-0.107 22.792 9.892 23.003 22.401-0.211 12.509-10.479 22.508-23.003 22.401-12.536 0.125-22.824-9.88-23.035-22.401z"></path>
</svg>
