<!-- Generated by IcoMoon.io -->
<svg version="1.1" xmlns="http://www.w3.org/2000/svg" width="64" height="64" viewBox="0 0 64 64">
<title>icon-xuetang</title>
<path d="M35.332 42.663h-11.995c-1.2 0-1.999-1.111-1.999-2.221v-0.889c0-1.333 1-2.221 1.999-2.221h11.995c1.2 0 1.999 1.111 1.999 2.221v0.889c0 1.111-0.8 2.221-1.999 2.221z"></path>
<path d="M31.685 33.481v12.44c0 1.244-1.045 2.073-2.090 2.073h-0.836c-1.254 0-2.090-1.037-2.090-2.073v-12.44c0-1.244 1.045-2.073 2.090-2.073h0.836c1.254-0.207 2.090 0.829 2.090 2.073zM48.616 10.675c0 0-14.632 13.062-8.57 21.77 0 0 4.808 7.671 13.587 3.525 0 0 4.389-1.659 5.017-7.878 0 0 0.627-7.049-10.033-17.416z"></path>
<path d="M49.026 39.647c0.212 1.077 0 1.723 0 1.723-1.274 11.847-9.342 15.509-9.766 15.725-17.197 8.401-26.327-6.247-26.752-7.108-10.403-15.078 11.040-38.127 16.773-44.158 3.822 4.093 7.006 7.755 9.554 11.201l1.911-4.524c-2.76-3.447-5.945-7.324-9.979-11.201l-1.274-1.292-1.486 1.292c-1.274 1.292-33.121 30.588-19.108 51.051 0 0.215 7.219 11.632 20.17 11.632 3.609 0 7.431-0.862 11.89-3.016 0.425-0.215 10.616-4.524 12.314-19.171 0-0.215 0.212-1.508-0.212-3.662l-4.034 1.508z"></path>
</svg>
