<!-- Generated by IcoMoon.io -->
<svg version="1.1" xmlns="http://www.w3.org/2000/svg" width="64" height="64" viewBox="0 0 64 64">
<title>icon-teamleader</title>
<path d="M50.999 47.291h-37.988c-0.134-0.005-0.291-0.008-0.449-0.008-6.769 0-12.288 5.35-12.561 12.052l-0.001 0.025v4.548h64v-4.548c-0.264-6.725-5.78-12.077-12.546-12.077-0.16 0-0.321 0.003-0.48 0.009l0.023-0.001zM45.822 10.286c-12.039-10.194-33.293-3.703-33.293-3.703 1.568 0.007 3.042 0.404 4.332 1.098l-0.049-0.024c2.025 1.417 0.25 3.245-1.673 5.783v0.023s0 0-0.016 0.023v0c-2.36 3.031-3.787 6.891-3.794 11.084v0.002c0 10.606 9.264 19.2 20.688 19.2s20.688-8.594 20.688-19.2c-0.046-5.756-2.703-10.881-6.842-14.259l-0.033-0.027z"></path>
</svg>
