<!-- Generated by IcoMoon.io -->
<svg version="1.1" xmlns="http://www.w3.org/2000/svg" width="36" height="32" viewBox="0 0 36 32">
<title>icon-smzaiyuan</title>
<path d="M26.080 29.767h-3.323l-0.384-0.712h-8.949l-0.384 0.712h-3.324c-0.644 0-1.163 0.501-1.163 1.117s0.519 1.117 1.163 1.117h16.364c0.645 0 1.166-0.5 1.166-1.117s-0.521-1.117-1.166-1.117zM32.815 0h-29.831c-1.928 0-2.984 1.099-2.984 2.948v21.688c0 1.849 1.056 2.943 2.984 2.943h29.828c1.928 0 2.984-1.094 2.984-2.946v-21.685c0-1.847-1.056-2.945-2.981-2.948zM27.213 11.92c-0.019 0.024-0.039 0.048-0.060 0.071l-6.265 6.987c-0.518 0.551-1.377 0.603-1.959 0.119l-4.546-3.876-3.512 3.574c-0.563 0.567-1.516 0.585-2.101 0.040v-0.001c-0.267-0.242-0.422-0.583-0.427-0.944s0.14-0.706 0.4-0.955l4.743-4.706c0.51-0.486 1.308-0.501 1.836-0.034l4.493 4.067 5.166-5.799c0.531-0.567 1.408-0.636 2.021-0.159 0.244 0.185 0.405 0.46 0.445 0.763s-0.044 0.61-0.232 0.852z"></path>
</svg>
