<!-- Generated by IcoMoon.io -->
<svg version="1.1" xmlns="http://www.w3.org/2000/svg" width="72" height="64" viewBox="0 0 72 64">
<title>icon-home</title>
<path d="M56.206 64c-0.136 0-0.245-0.004-0.323-0.008h-41.338c-2.769 0-4.363-1.163-5.213-2.138-1.862-2.137-1.712-5.035-1.628-5.839v-24.784h4.426v25.086l-0.021 0.13c-0.053 0.441-0.058 1.811 0.573 2.524 0.133 0.151 0.54 0.609 1.863 0.609l41.567 0.006c0.149 0.005 1.543 0.030 2.42-0.797 0.585-0.551 0.881-1.462 0.881-2.708v-24.869h4.426v24.869c0 3.162-1.262 4.989-2.321 5.965-1.904 1.755-4.316 1.954-5.312 1.954zM9.917 33.302h-6.801c-0.919 0-1.742-0.566-2.069-1.423s-0.088-1.825 0.6-2.433l32.657-28.89c0.831-0.735 2.081-0.742 2.92-0.016l33.111 28.663c0.688 0.596 0.94 1.552 0.633 2.408s-1.109 1.437-2.020 1.463l-7.257 0.208c-0.022 0.001-0.043 0.001-0.065 0.001-1.193 0-2.176-0.946-2.211-2.143-0.035-1.218 0.927-2.233 2.149-2.268l1.586-0.045-27.36-23.685-26.845 23.749h0.974c1.222 0 2.213 0.988 2.213 2.206s-0.991 2.206-2.213 2.206zM28.357 61.807c-1.031 0-1.867-0.833-1.867-1.861v-15.569c0-0.335 0.085-1.716 1.385-3.033 1.577-1.597 4.25-2.407 7.946-2.407 3.64 0 6.285 0.821 7.86 2.441 1.33 1.367 1.415 2.806 1.413 3.188v15.321c0 1.028-0.836 1.861-1.867 1.861s-1.867-0.833-1.867-1.861v-15.299c-0.012-0.080-0.090-0.421-0.554-0.796-0.523-0.423-1.867-1.132-4.983-1.132-3.615 0-4.9 0.906-5.284 1.296-0.189 0.191-0.268 0.354-0.301 0.457-0.005 0.016-0.009 0.028-0.011 0.038v15.496c0 1.028-0.836 1.861-1.867 1.861zM28.841 46.972l-0.622 14.201-16.459-0.896-1.176-17.51 0.346-11.443-4.91-1.585 29.668-26.816 29.253 25.437-2.974 2.826-1.245 25.506-1.176 3.929-15.491 0.551-0.277-10.271-0.968-6.894-1.936-1.586-3.804-0.62-4.703 0.414-2.905 0.414-0.622 4.343z"></path>
</svg>
