<!-- Generated by IcoMoon.io -->
<svg version="1.1" xmlns="http://www.w3.org/2000/svg" width="37" height="32" viewBox="0 0 37 32">
<title>icon-huxi</title>
<path d="M31.268 31.75c-4.664 1.17-9.874-2.615-12.628-9.99-2.737 7.401-7.941 11.202-12.599 10.031-5.060-1.272-7.555-7.927-5.070-16.631s8.244-13.475 13.304-12.203c1.817 0.457 3.295 1.634 4.33 3.356 1.041-1.768 2.543-2.977 4.396-3.442 5.080-1.274 10.861 3.504 13.356 12.223s-0.011 15.383-5.090 16.657zM22.736 5.302c-1.58 0.395-3.090 3.286-3.977 4.789-0.882-1.464-3.040-4.328-4.589-4.716-4.31-1.082-8.465 2.799-10.583 10.201s-0.368 12.884 3.944 13.967c3.969 0.995 7.438-5.54 11.228-11.202 3.012 5.003 6.857 12.161 10.832 11.166 4.328-1.084 6.275-6.575 4.149-13.989s-6.675-11.301-11.004-10.217z"></path>
<path d="M26.327 20.131c-1.221 2.267-4.189 3.869-7.662 3.869s-6.44-1.602-7.661-3.869c-0.314-0.284-0.421-0.73-0.27-1.124s0.528-0.657 0.952-0.662c0.424-0.005 0.807 0.249 0.966 0.64l0.060-0.020c0.742 1.718 3.126 2.977 5.954 2.977 2.822 0 5.201-1.253 5.949-2.966l0.061 0.020c0.155-0.395 0.537-0.655 0.963-0.654s0.807 0.263 0.96 0.659c0.152 0.396 0.045 0.844-0.271 1.129zM21.561 15.286h-0.966c-0.043-0.036-0.083-0.077-0.12-0.123l-1.799-2.258-1.815 2.276c-0.032 0.038-0.066 0.073-0.102 0.105h-1.010c-0.036-0.031-0.070-0.066-0.102-0.105-0.335-0.421-0.335-1.101 0-1.522l2.165-2.714v-9.886c0.007-0.587 0.389-1.059 0.858-1.059s0.851 0.472 0.858 1.059v9.89l2.155 2.702c0.333 0.418 0.333 1.094 0 1.512-0.037 0.045-0.077 0.086-0.12 0.123z"></path>
</svg>
