<!-- Generated by IcoMoon.io -->
<svg version="1.1" xmlns="http://www.w3.org/2000/svg" width="32" height="32" viewBox="0 0 32 32">
<title>icon-form</title>
<path d="M29.333 32h-26.667c-2.205 0-2.667-0.414-2.667-2.45v-27.1c0-2.036 0.461-2.45 2.667-2.45h26.667c2.205 0 2.667 0.414 2.667 2.45v27.1c0 2.036-0.461 2.45-2.667 2.45zM21.098 16.663h-0c0.749 0 1.355-0.538 1.355-1.2s-0.606-1.2-1.354-1.2c-0 0-0.001 0-0.001 0h-14.954c-0.748 0-1.355 0.537-1.355 1.2s0.607 1.2 1.354 1.2c0 0 0 0 0.001 0h14.954zM25.47 24.663h-0c0.95 0 1.718-0.538 1.718-1.2s-0.769-1.2-1.717-1.2c-0.001 0-0.001 0-0.002 0h-18.963c-0.949 0-1.718 0.538-1.718 1.2 0.001 0.663 0.77 1.2 1.718 1.2 0 0 0.001 0 0.001 0h18.963zM4.956 7.415c0.001 1.207 0.978 2.185 2.184 2.185 0 0 0.001 0 0.002 0s0.001 0 0.001 0c1.206 0 2.183-0.978 2.184-2.185-0-1.207-0.978-2.186-2.184-2.186-0 0-0.001 0-0.001 0s-0.001 0-0.001 0c-1.206 0-2.183 0.978-2.184 2.185l0 0zM12.956 7.415c0.001 1.207 0.978 2.185 2.184 2.185 0.001 0 0.001 0 0.002 0s0.001 0 0.001 0c1.206 0 2.183-0.978 2.184-2.185-0-1.207-0.978-2.186-2.184-2.186-0 0-0.001 0-0.001 0s-0.001 0-0.001 0c-1.206 0-2.183 0.978-2.184 2.185l0 0zM20.956 7.415c0.001 1.207 0.978 2.185 2.184 2.185 0 0 0.001 0 0.002 0s0.001 0 0.001 0c1.206 0 2.183-0.978 2.184-2.185-0-1.207-0.978-2.186-2.184-2.186-0 0-0.001 0-0.001 0s-0.001 0-0.001 0c-1.206 0-2.183 0.978-2.184 2.185l0 0z"></path>
</svg>
