<!-- Generated by IcoMoon.io -->
<svg version="1.1" xmlns="http://www.w3.org/2000/svg" width="32" height="32" viewBox="0 0 32 32">
<title>icon-pinggu</title>
<path d="M29.333 32h-26.667c-2.205 0-2.667-0.414-2.667-2.45v-27.1c0-2.036 0.461-2.45 2.667-2.45h26.667c2.205 0 2.667 0.414 2.667 2.45v27.1c0 2.036-0.461 2.45-2.667 2.45zM7.857 24.8h16.286c0.386 0 0.757-0.126 1.030-0.351s0.427-0.53 0.427-0.85c0-0.662-0.652-1.199-1.457-1.199h-16.286c-0.805 0-1.457 0.537-1.457 1.201 0 0.318 0.154 0.623 0.427 0.848s0.644 0.351 1.030 0.351zM25.194 8.903c0.514-0.51 0.514-1.338-0.004-1.848-0.516-0.51-1.352-0.51-1.868 0l-9.434 9.335-4.262-4.218c-0.485-0.479-1.271-0.479-1.756 0s-0.485 1.257 0 1.736l5.070 5.016c0.039 0.049 0.059 0.108 0.104 0.152 0.142 0.138 0.307 0.232 0.481 0.294 0.453 0.195 0.997 0.112 1.367-0.254 0.020-0.018 0.026-0.043 0.045-0.063l10.258-10.151z"></path>
</svg>
