<!-- Generated by IcoMoon.io -->
<svg version="1.1" xmlns="http://www.w3.org/2000/svg" width="32" height="32" viewBox="0 0 32 32">
<title>icon-untying</title>
<path d="M32 16.198c0 8.639-7.163 15.802-16.198 15.802-8.639 0-15.802-7.163-15.802-15.802 0-9.034 7.163-16.198 15.802-16.198 9.034 0 16.198 7.163 16.198 16.198zM16.23 13.223l1.764-1.768c0.542-0.544 1.258-0.868 1.914-0.868 0.296 0 0.717 0.067 1.036 0.386l0.082 0.082c0.672 0.672 0.454 2.025-0.473 2.956l-1.766 1.769 1.264 1.264 1.767-1.771c1.639-1.644 1.851-4.102 0.474-5.478l-0.082-0.082c-0.588-0.588-1.406-0.911-2.301-0.911-1.138 0-2.297 0.508-3.18 1.393l-1.762 1.766 1.263 1.264zM16.011 18.562l-1.606 1.61c-0.535 0.538-1.242 0.858-1.889 0.858-0.298 0-0.72-0.068-1.071-0.418l-0.059-0.053c-0.305-0.304-0.442-0.757-0.387-1.274 0.063-0.59 0.36-1.178 0.836-1.656l1.62-1.623-1.263-1.263-1.621 1.625c-0.764 0.765-1.242 1.733-1.348 2.727-0.114 1.066 0.206 2.035 0.926 2.752l0.059 0.054c0.592 0.59 1.412 0.916 2.309 0.916 1.128 0 2.278-0.505 3.154-1.384l1.604-1.608-1.263-1.263zM13.064 12.078l-0.758 0.758 6.804 6.804 0.758-0.758-6.804-6.804z"></path>
</svg>
