<!-- Generated by IcoMoon.io -->
<svg version="1.1" xmlns="http://www.w3.org/2000/svg" width="64" height="64" viewBox="0 0 64 64">
<title>icon-eye-disable</title>
<path d="M47.901 4.521c-2.337-1.349-5.325-0.549-6.674 1.788l-2.916 5.036c-2.023-0.435-4.163-0.679-6.419-0.679-21.035 0-31.893 21.333-31.893 21.333s5.907 10.694 16.549 16.938l-2.239 3.867c-1.349 2.337-0.549 5.325 1.788 6.674s5.325 0.549 6.674-1.788l26.916-46.496c1.349-2.337 0.548-5.325-1.788-6.674zM17.152 32c0-8.235 6.634-14.912 14.848-14.912 0.969 0 1.915 0.093 2.831 0.27l-2.661 4.597c-0.057-0.001-0.113-0.003-0.17-0.003-5.525 0-10.005 4.501-10.005 10.048 0 1.871 0.511 3.619 1.399 5.116l-2.66 4.595c-2.232-2.609-3.581-6-3.581-9.711zM50.552 16.85l-5.113 8.803c0.903 1.926 1.409 4.077 1.409 6.347 0 7.858-6.042 14.292-13.731 14.866l-3.686 6.346c0.855 0.078 1.725 0.121 2.612 0.121 20.95 0 31.958-21.333 31.958-21.333s-4.559-8.85-13.448-15.15z"></path>
</svg>
