<!-- Generated by IcoMoon.io -->
<svg version="1.1" xmlns="http://www.w3.org/2000/svg" width="35" height="32" viewBox="0 0 35 32">
<title>icon-smruzhu</title>
<path d="M14.541 1.55c2.067-1.462 4.841-1.419 6.862 0.104l12.117 9.136c0.873 0.658 1.386 1.688 1.386 2.781v0.049c0 0.931-0.755 1.687-1.687 1.687s-1.687 0.755-1.687 1.687v8.707c0 3.213-2.605 5.818-5.818 5.818h-16.525c-3.213 0-5.818-2.605-5.818-5.818v-8.707c0-0.931-0.755-1.687-1.687-1.687s-1.687-0.755-1.687-1.687v-0.049c0-1.089 0.528-2.11 1.417-2.738l13.125-9.283zM16.046 19.27v7.25c0 0.7 0.386 1.099 1.061 1.099h1.25c0.193 0 0.386-0.1 0.482-0.2 0.386-0.4 0.579-0.899 0.579-1.499v-6.45c0-0.2 0-0.2 0.193-0.2h6.997c0.482 0 0.868-0.4 0.965-0.899v-1.391c0-0.2-0.096-0.4-0.193-0.6-0.193-0.3-0.579-0.4-0.965-0.4h-6.997v-7.25c0-0.8-0.386-1.199-1.158-1.199h-1.057c-0.193 0-0.386 0-0.579 0.1-0.386 0.2-0.579 0.6-0.579 0.999v7.25h-6.997c-0.675 0-1.061 0.4-1.061 1.099v1.191c0 0.3 0.097 0.5 0.193 0.7 0.193 0.3 0.579 0.4 0.965 0.4h6.9z"></path>
</svg>
